<?xml version="1.0" encoding="UTF-8"?>
<svg width="2956px" height="2956px" viewBox="0 0 2956 2956" version="1.1" xmlns="http://www.w3.org/2000/svg" xmlns:xlink="http://www.w3.org/1999/xlink">
    <!-- Generator: Sketch 63.1 (92452) - https://sketch.com -->
    <title>Facebook</title>
    <desc>Created with Sketch.</desc>
    <g id="Page-1" stroke="none" stroke-width="1" fill="none" fill-rule="evenodd">
        <g id="Facebook">
            <circle id="Oval-Copy-3" fill="#4267B2" cx="1478" cy="1478" r="1478"></circle>
            <g id="facebook-f" transform="translate(1046.000000, 646.000000)" fill="#FFFFFF" fill-rule="nonzero">
                <path d="M864,12 L864,276 L707,276 C649.666667,276 611,288 591,312 C571,336 561,372 561,420 L561,609 L854,609 L815,905 L561,905 L561,1664 L255,1664 L255,905 L0,905 L0,609 L255,609 L255,391 C255,267 289.666667,170.833333 359,102.5 C428.333333,34.1666667 520.666667,0 636,0 C734,0 810,4 864,12 Z" id="Path"></path>
            </g>
        </g>
    </g>
</svg>